<svg width="667" height="167" viewBox="0 0 667 167" fill="none" xmlns="http://www.w3.org/2000/svg">
<path d="M0 0H667C667 0 667 144.152 667 143.503C667 138.633 621.855 162.356 558.501 166.23C495.148 170.103 388.639 158.113 388.639 158.113C388.639 158.113 243.677 144.152 157.412 144.152C71.1467 144.152 0 166.23 0 166.23V0Z" fill="url(#paint0_linear)"/>
<path d="M270.436 97.36C267.652 97.36 265.336 96.808 263.488 95.704C261.64 94.6 260.26 93.064 259.348 91.096C258.436 89.104 257.98 86.776 257.98 84.112C257.98 81.52 258.448 79.24 259.384 77.272C260.32 75.28 261.712 73.732 263.56 72.628C265.408 71.5 267.688 70.936 270.4 70.936C273.16 70.936 275.212 71.344 276.556 72.16C277.924 72.952 278.608 73.936 278.608 75.112C278.608 76 278.224 76.744 277.456 77.344C276.688 77.944 275.572 78.244 274.108 78.244C274.108 77.452 273.988 76.672 273.748 75.904C273.508 75.136 273.1 74.5 272.524 73.996C271.948 73.492 271.156 73.24 270.148 73.24C267.868 73.24 266.272 74.188 265.36 76.084C264.472 77.956 264.028 80.632 264.028 84.112C264.028 87.592 264.568 90.196 265.648 91.924C266.752 93.628 268.636 94.48 271.3 94.48C272.476 94.48 273.484 94.312 274.324 93.976C275.164 93.616 275.872 93.172 276.448 92.644C277.048 92.116 277.552 91.588 277.96 91.06C278.368 91.396 278.572 91.912 278.572 92.608C278.572 93.28 278.32 93.988 277.816 94.732C277.312 95.452 276.472 96.076 275.296 96.604C274.12 97.108 272.5 97.36 270.436 97.36ZM291.027 97.36C288.147 97.36 285.879 96.532 284.223 94.876C282.567 93.196 281.739 90.664 281.739 87.28C281.739 83.896 282.531 81.376 284.115 79.72C285.699 78.064 288.039 77.236 291.135 77.236C294.015 77.236 296.283 78.064 297.939 79.72C299.595 81.376 300.423 83.896 300.423 87.28C300.423 90.664 299.619 93.196 298.011 94.876C296.427 96.532 294.099 97.36 291.027 97.36ZM291.099 95.092C292.491 95.092 293.463 94.432 294.015 93.112C294.567 91.768 294.843 89.824 294.843 87.28C294.843 84.712 294.555 82.78 293.979 81.484C293.427 80.188 292.455 79.54 291.063 79.54C289.671 79.54 288.699 80.188 288.147 81.484C287.595 82.78 287.319 84.712 287.319 87.28C287.319 89.824 287.595 91.768 288.147 93.112C288.723 94.432 289.707 95.092 291.099 95.092ZM310.909 97L305.005 81.34C304.765 80.644 304.417 80.188 303.961 79.972C303.529 79.732 302.917 79.612 302.125 79.612V77.704H313.285V79.612H311.773C310.981 79.612 310.585 79.996 310.585 80.764C310.585 81.052 310.621 81.34 310.693 81.628C310.765 81.916 310.837 82.156 310.909 82.348L313.321 89.152C313.585 89.896 313.837 90.676 314.077 91.492C314.341 92.308 314.521 93.028 314.617 93.652C314.737 93.076 314.893 92.428 315.085 91.708C315.277 90.964 315.457 90.352 315.625 89.872L318.073 82.636C318.193 82.3 318.289 81.964 318.361 81.628C318.433 81.292 318.469 80.968 318.469 80.656C318.469 80.248 318.337 79.972 318.073 79.828C317.809 79.684 317.473 79.612 317.065 79.612H316.021V77.704H323.941V79.612H323.221C322.741 79.612 322.333 79.768 321.997 80.08C321.661 80.368 321.289 81.088 320.881 82.24L315.661 97H310.909ZM330.113 74.464C329.249 74.464 328.517 74.26 327.917 73.852C327.341 73.42 327.053 72.76 327.053 71.872C327.053 70.96 327.341 70.3 327.917 69.892C328.517 69.484 329.249 69.28 330.113 69.28C330.953 69.28 331.673 69.484 332.273 69.892C332.897 70.3 333.209 70.96 333.209 71.872C333.209 72.76 332.897 73.42 332.273 73.852C331.673 74.26 330.953 74.464 330.113 74.464ZM324.569 97V95.092H325.001C325.361 95.092 325.733 95.044 326.117 94.948C326.525 94.828 326.861 94.6 327.125 94.264C327.413 93.928 327.557 93.424 327.557 92.752V81.808C327.557 81.16 327.413 80.68 327.125 80.368C326.837 80.056 326.489 79.852 326.081 79.756C325.697 79.66 325.337 79.612 325.001 79.612H324.569V77.704H333.029V92.752C333.029 93.424 333.161 93.928 333.425 94.264C333.713 94.6 334.061 94.828 334.469 94.948C334.877 95.044 335.249 95.092 335.585 95.092H336.017V97H324.569ZM345.613 97.36C343.261 97.36 341.449 96.568 340.177 94.984C338.905 93.376 338.269 90.844 338.269 87.388C338.269 83.908 338.893 81.352 340.141 79.72C341.413 78.088 343.213 77.272 345.541 77.272C346.885 77.272 347.989 77.548 348.853 78.1C349.717 78.628 350.401 79.312 350.905 80.152H351.157C351.061 79.48 350.989 78.724 350.941 77.884C350.893 77.044 350.869 76.336 350.869 75.76V73.78C350.869 72.796 350.581 72.184 350.005 71.944C349.429 71.68 348.745 71.548 347.953 71.548H347.665V69.64H356.341V92.572C356.341 93.292 356.473 93.832 356.737 94.192C357.025 94.552 357.397 94.792 357.853 94.912C358.309 95.032 358.801 95.092 359.329 95.092H359.473V97H352.489L351.481 94.192H351.157C350.629 95.152 349.921 95.92 349.033 96.496C348.169 97.072 347.029 97.36 345.613 97.36ZM347.161 94.66C348.577 94.66 349.549 94.06 350.077 92.86C350.605 91.636 350.869 89.788 350.869 87.316C350.869 84.94 350.605 83.116 350.077 81.844C349.549 80.572 348.577 79.936 347.161 79.936C345.961 79.936 345.097 80.572 344.569 81.844C344.065 83.116 343.813 84.952 343.813 87.352C343.813 89.8 344.065 91.636 344.569 92.86C345.097 94.06 345.961 94.66 347.161 94.66ZM372.836 97V95.092H375.788C376.412 95.092 376.868 94.924 377.156 94.588C377.444 94.252 377.588 93.64 377.588 92.752V74.716C376.676 75.82 375.848 76.72 375.104 77.416C374.384 78.112 373.664 78.46 372.944 78.46C372.368 78.46 371.876 78.22 371.468 77.74C371.06 77.26 370.856 76.612 370.856 75.796C371.576 75.604 372.38 75.316 373.268 74.932C374.18 74.548 375.224 73.912 376.4 73.024L378.92 71.152H382.952V92.752C382.952 93.496 383.072 94.072 383.312 94.48C383.552 94.888 384.044 95.092 384.788 95.092H387.704V97H372.836ZM397.625 97.36C396.185 97.36 395.033 97.168 394.169 96.784C393.305 96.376 392.681 95.86 392.297 95.236C391.913 94.612 391.721 93.964 391.721 93.292C391.721 92.764 391.865 92.32 392.153 91.96C392.441 91.6 392.885 91.36 393.485 91.24C393.821 92.32 394.325 93.232 394.997 93.976C395.669 94.72 396.605 95.092 397.805 95.092C400.925 95.092 402.617 91.612 402.881 84.652C402.353 85.348 401.669 85.936 400.829 86.416C399.989 86.872 398.969 87.1 397.769 87.1C395.705 87.1 394.013 86.464 392.693 85.192C391.373 83.92 390.713 82.072 390.713 79.648C390.713 77.92 391.037 76.408 391.685 75.112C392.357 73.792 393.305 72.772 394.529 72.052C395.777 71.308 397.253 70.936 398.957 70.936C400.709 70.936 402.257 71.356 403.601 72.196C404.945 73.036 406.001 74.344 406.769 76.12C407.561 77.896 407.957 80.2 407.957 83.032C407.957 85 407.765 86.86 407.381 88.612C406.997 90.34 406.385 91.864 405.545 93.184C404.729 94.48 403.661 95.5 402.341 96.244C401.045 96.988 399.473 97.36 397.625 97.36ZM399.317 84.508C400.157 84.508 400.877 84.292 401.477 83.86C402.077 83.404 402.545 82.816 402.881 82.096C402.857 79.024 402.509 76.804 401.837 75.436C401.165 74.044 400.277 73.348 399.173 73.348C398.141 73.348 397.337 73.864 396.761 74.896C396.209 75.904 395.933 77.416 395.933 79.432C395.933 82.816 397.061 84.508 399.317 84.508Z" fill="white"/>
<defs>
<linearGradient id="paint0_linear" x1="-151.187" y1="-34" x2="168.68" y2="884.278" gradientUnits="userSpaceOnUse">
<stop stop-color="#FFA374"/>
<stop offset="1" stop-color="#FF9373"/>
</linearGradient>
</defs>
</svg>
